# xmcd
#
# Track frame offsets:
#	150
#	14238
#	27581
#	39329
#	53181
#	65235
#	78070
#	88404
#	98215
#	109907
#	119593
#	129098
#
# Disc length: 1848 seconds
#
# Revision: 0
# Processed by: cddbd v1.5.2PL0 Copyright (c) Steve Scherf et al.
# Submitted via: EasyCDDAExtractor 16.0.1.1
#
DISCID=a707360c
DTITLE=Bobby Lord - The Bobby Lord Show
DYEAR=1965
DGENRE=Country
TTITLE0=Life Can Have A Meaning
TTITLE1=Pickin' White Gold
TTITLE2=Out Behind The Barn
TTITLE3=Don't Shed Any Tears For Me
TTITLE4=Cry  Cry Darling
TTITLE5=I'm Going Home Next Summer
TTITLE6=That Room In The Corner Of The House
TTITLE7=Trail Of Tears
TTITLE8=I'll Go On Alone
TTITLE9=The Precious Jewel
TTITLE10=A Man Needs A Woman
TTITLE11=Take The Bucket To The Well
EXTD=
EXTT0=
EXTT1=
EXTT2=
EXTT3=
EXTT4=
EXTT5=
EXTT6=
EXTT7=
EXTT8=
EXTT9=
EXTT10=
EXTT11=
PLAYORDER=
